<?xml version="1.0" encoding="utf-8"?>
<!-- Generator: Adobe Illustrator 25.4.1, SVG Export Plug-In . SVG Version: 6.00 Build 0)  -->
<svg version="1.1" id="Capa_2" xmlns="http://www.w3.org/2000/svg" xmlns:xlink="http://www.w3.org/1999/xlink" x="0px" y="0px"
	 width="800px" height="238.7px" viewBox="0 0 800 238.7" style="enable-background:new 0 0 800 238.7;" xml:space="preserve">
<style type="text/css">
	.st0{fill:#003366;}
	.st1{fill:#666666;}
	.st2{fill:#0A395F;}
	.st3{fill:#FF6600;}
	.st4{fill:#FFFFFF;}
</style>
<g>
	<path class="st0" d="M304.3,59.3c5.1,0,9.5,1.3,12.8,3.8c3.3,2.5,5.1,5.8,5.5,10l0.1,1.3h12.8l-0.2-1.5c-0.7-7.4-4.1-13.4-10-17.9
		c-5.8-4.5-12.9-6.7-21.1-6.7c-10.7,0-19.4,3.6-25.8,10.7c-6.4,7-9.6,16.6-9.6,28.5s3.2,21.5,9.6,28.5c6.4,7.1,15.1,10.7,25.8,10.7
		c8.6,0,15.8-2.2,21.4-6.7c5.7-4.5,9-10.9,9.7-19l0.1-1.5h-12.8l-0.1,1.3c-0.4,4.8-2.2,8.4-5.5,11c-3.3,2.6-7.6,3.9-13,3.9
		c-7,0-12.3-2.3-16.4-7.2c-4.1-4.8-6.1-11.9-6.1-20.9c0-9.1,2.1-16.1,6.2-21C291.9,61.7,297.3,59.3,304.3,59.3z"/>
	<path class="st0" d="M379,48.3c-10.6,0-19.4,3.6-26.2,10.8c-6.8,7.1-10.2,16.7-10.2,28.4c0,11.6,3.4,21.2,10.2,28.4
		c6.8,7.2,15.6,10.8,26.2,10.8c10.6,0,19.4-3.6,26.1-10.8c6.7-7.1,10.2-16.7,10.2-28.4c0-11.7-3.4-21.2-10.2-28.4
		C398.4,51.9,389.6,48.3,379,48.3z M402.5,87.5c0,8.9-2.2,15.9-6.6,20.8c-4.4,4.9-10,7.3-16.9,7.3c-6.9,0-12.4-2.4-16.9-7.3
		c-4.4-4.9-6.7-11.9-6.7-20.8c0-8.9,2.3-15.9,6.7-20.8c4.5-4.9,10-7.3,17-7.3c6.9,0,12.3,2.4,16.8,7.3
		C400.3,71.6,402.5,78.6,402.5,87.5z"/>
	<polygon class="st0" points="473.5,104 437.4,49.5 425.4,49.5 425.4,125.4 437.3,125.4 437.3,71 473.5,125.4 485.6,125.4 
		485.6,49.5 473.5,49.5 	"/>
	<polygon class="st0" points="493.2,61 517.2,61 517.2,125.4 529.7,125.4 529.7,61 553.9,61 553.9,49.5 493.2,49.5 	"/>
	<rect x="562.7" y="49.5" class="st0" width="12.5" height="75.9"/>
	<polygon class="st0" points="639.2,49.5 617.1,109.5 595,49.5 581.6,49.5 611.1,125.4 623,125.4 652.5,49.5 	"/>
	<path class="st0" d="M678.2,49.5L649,125.4h13.2l8.1-22.2H699l8.5,22.2h14l-31-75.9H678.2z M695.1,92.7H674l10.3-28.5L695.1,92.7z"
		/>
	<polygon class="st0" points="738.5,113.9 738.5,49.5 726,49.5 726,125.4 774.1,125.4 774.1,113.9 	"/>
</g>
<g>
	<polygon class="st1" points="562.7,141.8 574,141.8 574,172.2 579.3,172.2 579.3,141.8 590.8,141.8 590.8,137 562.7,137 	"/>
	<polygon class="st1" points="600.2,156.5 619.3,156.5 619.3,151.6 600.2,151.6 600.2,141.8 620.6,141.8 620.6,137 594.9,137 
		594.9,172.2 621.4,172.2 621.4,167.3 600.2,167.3 	"/>
	<polygon class="st1" points="614.3,128.2 607.7,128.2 604.2,135.5 608.5,135.5 	"/>
	<path class="st1" d="M641.9,141c2.5,0,4.6,0.6,6.2,1.9c1.6,1.2,2.5,2.8,2.7,4.9l0,0.4h5.5l0-0.4c-0.3-3.4-1.9-6.2-4.6-8.3
		c-2.7-2.1-6-3.1-9.8-3.1c-5,0-9,1.7-12,4.9c-3,3.3-4.5,7.7-4.5,13.3c0,5.5,1.5,10,4.5,13.3c3,3.3,7,4.9,12,4.9c4,0,7.3-1,9.9-3.1
		c2.6-2.1,4.1-5,4.5-8.8l0-0.4h-5.5l0,0.4c-0.2,2.3-1.1,4.1-2.7,5.4c-1.6,1.3-3.7,1.9-6.3,1.9c-3.3,0-6-1.2-7.9-3.5
		c-2-2.3-2.9-5.7-2.9-10.1c0-4.4,1-7.7,3-10.1C635.9,142.2,638.5,141,641.9,141z"/>
	<polygon class="st1" points="684.5,163.3 667.2,137.1 667.1,137 661.8,137 661.8,172.2 666.9,172.2 666.9,145.9 684.3,172 
		684.4,172.2 689.7,172.2 689.7,137 684.5,137 	"/>
	<rect x="697.2" y="137" class="st1" width="5.4" height="35.3"/>
	<path class="st1" d="M724.9,141c2.5,0,4.6,0.6,6.2,1.9c1.6,1.2,2.5,2.8,2.7,4.9l0,0.4h5.5l0-0.4c-0.3-3.4-1.9-6.2-4.6-8.3
		c-2.7-2.1-6-3.1-9.8-3.1c-5,0-9,1.7-12,4.9c-3,3.3-4.5,7.7-4.5,13.3c0,5.5,1.5,10,4.5,13.3c3,3.3,7,4.9,12,4.9c4,0,7.3-1,9.9-3.1
		c2.6-2.1,4.1-5,4.5-8.8l0-0.4h-5.5l0,0.4c-0.2,2.3-1.1,4.1-2.7,5.4c-1.6,1.3-3.7,1.9-6.3,1.9c-3.3,0-6-1.2-7.9-3.5
		c-2-2.3-2.9-5.7-2.9-10.1c0-4.4,1-7.7,3-10.1C718.8,142.2,721.5,141,724.9,141z"/>
	<path class="st1" d="M759.7,137h-5.4l-13.5,35.3h5.7l3.8-10.5h13.9l4,10.5h6L759.7,137z M762.4,157.3h-10.7l5.2-14.5L762.4,157.3z"
		/>
</g>
<path class="st2" d="M191.9,21.4H78.4l-56.7,98.3L78.4,218h113.5l56.7-98.3L191.9,21.4z M135.1,185.1c-36.1,0-65.3-29.2-65.3-65.3
	S99,54.4,135.1,54.4s65.3,29.2,65.3,65.3S171.2,185.1,135.1,185.1z"/>
<g>
	
		<rect x="97.3" y="77.4" transform="matrix(0.7071 -0.7071 0.7071 0.7071 -30.3455 95.0163)" class="st2" width="4.4" height="13.5"/>
	
		<rect x="168.5" y="148.5" transform="matrix(0.7071 -0.7071 0.7071 0.7071 -59.826 166.1887)" class="st2" width="4.4" height="13.5"/>
	
		<rect x="92.8" y="153.1" transform="matrix(0.7071 -0.7071 0.7071 0.7071 -80.672 115.8622)" class="st2" width="13.5" height="4.4"/>
	
		<rect x="163.9" y="81.9" transform="matrix(0.7071 -0.7071 0.7071 0.7071 -9.4996 145.3427)" class="st2" width="13.5" height="4.4"/>
</g>
<g>
	<path class="st3" d="M266,22.1h-51.2l-79.5,67.8c-15.8,1.2-28.2,14.4-28.2,30.5c0,16.9,13.7,30.6,30.6,30.6
		c16.9,0,30.6-13.7,30.6-30.6c0-4.5-1-8.7-2.7-12.6L266,22.1z"/>
	<path class="st4" d="M137.6,152.5c-17.7,0-32-14.4-32-32c0-16.5,12.7-30.4,29.1-31.9l79.5-67.8h55.7l-102.6,87.6
		c1.6,3.9,2.4,8,2.4,12.2C169.7,138.1,155.3,152.5,137.6,152.5z M215.3,23.6l-79.4,67.8l-0.5,0c-15.1,1.2-26.9,13.9-26.9,29
		c0,16.1,13.1,29.2,29.2,29.2s29.2-13.1,29.2-29.2c0-4.1-0.9-8.2-2.6-12l-0.4-1l98.3-83.9H215.3z"/>
</g>
</svg>
