<?xml version="1.0" encoding="utf-8"?>
<!-- Generator: Adobe Illustrator 25.4.1, SVG Export Plug-In . SVG Version: 6.00 Build 0)  -->
<svg version="1.1" id="Capa_2_00000010273255272315316600000007231487107293990280_"
	 xmlns="http://www.w3.org/2000/svg" xmlns:xlink="http://www.w3.org/1999/xlink" x="0px" y="0px" width="247.1px" height="198.7px"
	 viewBox="0 0 247.1 198.7" style="enable-background:new 0 0 247.1 198.7;" xml:space="preserve">
<style type="text/css">
	.st0{fill:#0A395F;}
	.st1{fill:#FFFFFF;}
	.st2{fill:#FF6600;}
</style>
<path class="st0" d="M171.2,1H57.8L1,99.3l56.7,98.3h113.5l56.7-98.3L171.2,1z M114.5,164.7c-36.1,0-65.3-29.2-65.3-65.3
	c0-36.1,29.2-65.4,65.3-65.4c36.1,0,65.3,29.2,65.3,65.3C179.8,135.4,150.6,164.7,114.5,164.7z"/>
<g>
	<path class="st1" d="M172,0.5L171.7,0H57.2L-0.1,99.3l57.2,99.3h114.7L229,99.3L172,0.5z M170.7,196.6H58.3L2.1,99.3L58.4,2h112.2
		l56.2,97.3L170.7,196.6z"/>
	<path class="st1" d="M114.5,33c-36.6,0-66.3,29.8-66.3,66.4c0,36.6,29.7,66.3,66.3,66.3c36.6,0,66.3-29.8,66.3-66.4
		C180.8,62.7,151.1,33,114.5,33z M114.5,163.7c-35.5,0-64.3-28.8-64.3-64.3S79,35,114.5,35s64.3,28.8,64.3,64.3
		C178.8,134.8,150,163.7,114.5,163.7z"/>
</g>
<g>
	<rect x="76.6" y="57" transform="matrix(0.7071 -0.7071 0.7071 0.7071 -22.0068 74.3758)" class="st0" width="4.4" height="13.5"/>
	
		<rect x="147.8" y="128" transform="matrix(0.7071 -0.7071 0.7071 0.7071 -51.337 145.5231)" class="st0" width="4.4" height="13.5"/>
	
		<rect x="72.2" y="132.6" transform="matrix(0.7071 -0.7071 0.7071 0.7071 -72.1785 95.3223)" class="st0" width="13.5" height="4.4"/>
	
		<rect x="143.2" y="61.5" transform="matrix(0.7071 -0.7071 0.7071 0.7071 -1.1362 124.6817)" class="st0" width="13.5" height="4.4"/>
</g>
<g>
	<path class="st2" d="M245.4,1.7h-51.2l-79.5,67.8C98.9,70.7,86.5,83.9,86.5,100c0,16.9,13.7,30.6,30.6,30.6s30.6-13.7,30.6-30.6
		c0-4.5-1-8.7-2.7-12.6L245.4,1.7z"/>
	<path class="st1" d="M117,132.1c-17.7,0-32-14.4-32-32c0-16.5,12.7-30.4,29.1-31.9l79.5-67.8h55.7L146.7,88c1.6,3.9,2.4,8,2.4,12.2
		C149.1,117.7,134.7,132.1,117,132.1z M194.7,3.2L115.3,71h-0.5c-15.1,1.2-26.9,13.9-26.9,29c0,16.1,13.1,29.2,29.2,29.2
		s29.2-13.1,29.2-29.2c0-4.1-0.9-8.2-2.6-12l-0.4-1l98.3-83.9L194.7,3.2L194.7,3.2z"/>
</g>
<g>
	<path class="st1" d="M135.1,66.4c0.8-0.7,1.6-1.1,2.5-1.1c0.8-0.1,1.6,0.2,2.2,0.8l0.2,0.2l2-1.7l-0.2-0.2
		c-1.1-1.1-2.4-1.5-3.9-1.4s-2.9,0.7-4.2,1.8c-1.7,1.4-2.5,3.1-2.6,5.1c-0.1,1.9,0.7,3.8,2.3,5.7s3.3,2.9,5.3,3.1
		c1.9,0.3,3.8-0.3,5.4-1.8c1.3-1.1,2.2-2.4,2.4-3.9c0.3-1.5-0.1-2.9-1-4.2l-0.2-0.2l-2,1.7l0.2,0.2c0.6,0.8,0.8,1.6,0.6,2.4
		s-0.7,1.6-1.5,2.3c-1.1,0.9-2.2,1.3-3.5,1.1c-1.3-0.2-2.5-1-3.7-2.4s-1.8-2.8-1.8-4.1C133.4,68.4,133.9,67.3,135.1,66.4z"/>
	<path class="st1" d="M145.2,54.8c-1.6,1.4-2.5,3.1-2.6,5.1s0.6,3.9,2.2,5.7c1.5,1.8,3.3,2.8,5.3,3s3.8-0.4,5.5-1.8
		c1.6-1.4,2.5-3.1,2.6-5.1s-0.6-3.9-2.2-5.7s-3.3-2.8-5.3-3C148.7,52.8,146.8,53.4,145.2,54.8z M155.8,61.8c0,1.3-0.6,2.5-1.6,3.4
		c-1.1,0.9-2.2,1.3-3.6,1.1c-1.3-0.2-2.6-1-3.8-2.3c-1.2-1.4-1.8-2.8-1.7-4.1c0-1.4,0.6-2.5,1.7-3.4c1.1-0.9,2.2-1.3,3.6-1.1
		c1.3,0.2,2.6,1,3.8,2.3C155.2,59.1,155.8,60.5,155.8,61.8z"/>
	<polygon class="st1" points="167.2,50.9 154.4,47.2 152.4,48.8 162.6,60.6 164.4,59 157.2,50.6 170.1,54.2 171.9,52.6 161.9,40.9 
		159.9,42.5 	"/>
	<polygon class="st1" points="164.6,41.6 168.2,38.4 176.8,48.4 178.7,46.8 170.2,36.8 173.9,33.6 172.4,31.8 162.9,39.8 	"/>
	
		<rect x="178.4" y="27.9" transform="matrix(0.7596 -0.6504 0.6504 0.7596 20.0033 125.4049)" class="st1" width="2.5" height="15.5"/>
	<polygon class="st1" points="185.6,20.5 190.2,32.7 178.8,26.4 176.7,28.1 191.2,36 193.2,34.4 187.7,18.7 	"/>
	<path class="st1" d="M193.6,13.7l-1.9,1.6l5.5,15.6l2-1.7l-1.7-4.5l4.4-3.8l4.3,2.3l2.2-1.9L193.6,13.7z M196.7,22.6l-2.2-5.8
		l5.4,3L196.7,22.6z"/>
	<polygon class="st1" points="214.9,12.6 209.4,17.3 200.9,7.3 199.1,9 209.1,20.7 216.6,14.4 	"/>
</g>
</svg>
