<?xml version="1.0" encoding="utf-8"?>
<!-- Generator: Adobe Illustrator 25.4.1, SVG Export Plug-In . SVG Version: 6.00 Build 0)  -->
<svg version="1.1" id="Capa_2_00000010273255272315316600000007231487107293990280_"
	 xmlns="http://www.w3.org/2000/svg" xmlns:xlink="http://www.w3.org/1999/xlink" x="0px" y="0px" width="247.1px" height="197.2px"
	 viewBox="0 0 247.1 197.2" style="enable-background:new 0 0 247.1 197.2;" xml:space="preserve">
<style type="text/css">
	.st0{fill:#0A395F;}
	.st1{fill:#FF6600;}
	.st2{fill:#FFFFFF;}
</style>
<g>
	<path class="st0" d="M170.2,0.6H56.7L0,98.9l56.7,98.3h113.5l56.7-98.3L170.2,0.6z M113.4,164.3c-36.1,0-65.3-29.2-65.3-65.3
		s29.2-65.4,65.3-65.4s65.3,29.2,65.3,65.3S149.5,164.3,113.4,164.3z"/>
	<g>
		
			<rect x="75.6" y="56.6" transform="matrix(0.7071 -0.7071 0.7071 0.7071 -22.0129 73.5808)" class="st0" width="4.4" height="13.5"/>
		
			<rect x="146.8" y="127.7" transform="matrix(0.7071 -0.7071 0.7071 0.7071 -51.453 144.7094)" class="st0" width="4.4" height="13.5"/>
		
			<rect x="71.1" y="132.3" transform="matrix(0.7071 -0.7071 0.7071 0.7071 -72.2973 94.425)" class="st0" width="13.5" height="4.4"/>
		
			<rect x="142.2" y="61.1" transform="matrix(0.7071 -0.7071 0.7071 0.7071 -1.1686 123.8651)" class="st0" width="13.5" height="4.4"/>
	</g>
	<g>
		<path class="st1" d="M244.3,1.3h-51.2l-79.5,67.8c-15.8,1.2-28.2,14.4-28.2,30.5c0,16.9,13.7,30.6,30.6,30.6s30.6-13.7,30.6-30.6
			c0-4.5-1-8.7-2.7-12.6L244.3,1.3z"/>
		<path class="st2" d="M115.9,131.7c-17.7,0-32-14.4-32-32c0-16.5,12.7-30.4,29.1-31.9L192.5,0h55.7L145.6,87.6
			c1.6,3.9,2.4,8,2.4,12.2C148,117.3,133.6,131.7,115.9,131.7z M193.6,2.8l-79.4,67.8h-0.5c-15.1,1.2-26.9,13.9-26.9,29
			c0,16.1,13.1,29.2,29.2,29.2s29.2-13.1,29.2-29.2c0-4.1-0.9-8.2-2.6-12l-0.4-1l98.3-83.9L193.6,2.8L193.6,2.8z"/>
	</g>
</g>
<g>
	<path class="st2" d="M134,66c0.8-0.7,1.6-1.1,2.5-1.1c0.8-0.1,1.6,0.2,2.2,0.8l0.2,0.2l2-1.7l-0.2-0.2c-1.1-1.1-2.4-1.5-3.9-1.4
		c-1.5,0.1-2.9,0.7-4.2,1.8c-1.7,1.4-2.5,3.1-2.6,5.1c-0.1,1.9,0.7,3.8,2.3,5.7s3.3,2.9,5.3,3.1c1.9,0.3,3.8-0.3,5.4-1.8
		c1.3-1.1,2.2-2.4,2.4-3.9c0.3-1.5-0.1-2.9-1-4.2l-0.2-0.2l-2,1.7l0.2,0.2c0.6,0.8,0.8,1.6,0.6,2.4c-0.2,0.8-0.7,1.6-1.5,2.3
		c-1.1,0.9-2.2,1.3-3.5,1.1c-1.3-0.2-2.5-1-3.7-2.4c-1.2-1.4-1.8-2.8-1.8-4.1C132.4,68,132.9,66.9,134,66z"/>
	<path class="st2" d="M144.1,54.4c-1.6,1.4-2.5,3.1-2.6,5.1c-0.1,2,0.6,3.9,2.2,5.7c1.5,1.8,3.3,2.8,5.3,3c2,0.2,3.8-0.4,5.5-1.8
		c1.6-1.4,2.5-3.1,2.6-5.1c0.1-2-0.6-3.9-2.2-5.7s-3.3-2.8-5.3-3C147.6,52.4,145.7,53,144.1,54.4z M154.7,61.4
		c0,1.3-0.6,2.5-1.6,3.4c-1.1,0.9-2.2,1.3-3.6,1.1c-1.3-0.2-2.6-1-3.8-2.3c-1.2-1.4-1.8-2.8-1.7-4.1c0-1.4,0.6-2.5,1.7-3.4
		c1.1-0.9,2.2-1.3,3.6-1.1c1.3,0.2,2.6,1,3.8,2.3C154.1,58.7,154.7,60.1,154.7,61.4z"/>
	<polygon class="st2" points="166.1,50.5 153.3,46.8 151.4,48.4 161.5,60.2 163.3,58.6 156.1,50.2 169,53.8 170.8,52.2 160.8,40.5 
		158.9,42.1 	"/>
	<polygon class="st2" points="163.5,41.2 167.2,38 175.7,48 177.6,46.4 169.1,36.4 172.9,33.2 171.3,31.4 161.9,39.4 	"/>
	
		<rect x="177.4" y="27.5" transform="matrix(0.7596 -0.6504 0.6504 0.7596 20.0152 124.7061)" class="st2" width="2.5" height="15.5"/>
	<polygon class="st2" points="184.5,20.1 189.1,32.3 177.7,26 175.6,27.7 190.2,35.6 192.1,34 186.6,18.3 	"/>
	<path class="st2" d="M192.5,13.3l-1.9,1.6l5.5,15.6l2-1.7l-1.7-4.5l4.4-3.8l4.3,2.3l2.2-1.9L192.5,13.3z M195.6,22.2l-2.2-5.8
		l5.4,3L195.6,22.2z"/>
	<polygon class="st2" points="213.9,12.2 208.4,16.9 199.9,6.9 198,8.6 208,20.3 215.5,14 	"/>
</g>
</svg>
